<svg id="Layer_1" data-name="Layer 1" xmlns="http://www.w3.org/2000/svg" xmlns:xlink="http://www.w3.org/1999/xlink" viewBox="0 0 3067.93 2160.52"><defs><style>.cls-1,.cls-10,.cls-11,.cls-12,.cls-13,.cls-14,.cls-15,.cls-16,.cls-17,.cls-18,.cls-19,.cls-2,.cls-20,.cls-21,.cls-22,.cls-23,.cls-24,.cls-25,.cls-26,.cls-27,.cls-28,.cls-29,.cls-3,.cls-30,.cls-31,.cls-32,.cls-33,.cls-34,.cls-35,.cls-36,.cls-37,.cls-38,.cls-39,.cls-4,.cls-40,.cls-41,.cls-43,.cls-44,.cls-45,.cls-46,.cls-47,.cls-48,.cls-49,.cls-5,.cls-50,.cls-51,.cls-52,.cls-53,.cls-54,.cls-55,.cls-56,.cls-6,.cls-7,.cls-8,.cls-9{fill:none;}.cls-10,.cls-11,.cls-12,.cls-13,.cls-14,.cls-15,.cls-16,.cls-17,.cls-18,.cls-19,.cls-2,.cls-20,.cls-21,.cls-22,.cls-23,.cls-24,.cls-25,.cls-26,.cls-27,.cls-28,.cls-29,.cls-3,.cls-30,.cls-31,.cls-32,.cls-33,.cls-34,.cls-35,.cls-36,.cls-37,.cls-38,.cls-39,.cls-4,.cls-40,.cls-41,.cls-43,.cls-44,.cls-45,.cls-46,.cls-47,.cls-48,.cls-49,.cls-5,.cls-50,.cls-51,.cls-52,.cls-53,.cls-54,.cls-55,.cls-56,.cls-57,.cls-6,.cls-7,.cls-8,.cls-9{stroke:#231f20;stroke-miterlimit:10;}.cls-3{stroke-dasharray:13.57 13.57;}.cls-4{stroke-dasharray:12.87 12.87;}.cls-5{stroke-dasharray:10.88 10.88;}.cls-6{stroke-dasharray:9.01 9.01;}.cls-7{stroke-dasharray:11.94 11.94;}.cls-8{stroke-dasharray:11.69 11.69;}.cls-9{stroke-dasharray:11.84 11.84;}.cls-10{stroke-dasharray:12.51 12.51;}.cls-11{stroke-dasharray:7.72 7.72;}.cls-12{stroke-dasharray:8.84 8.84;}.cls-13{stroke-dasharray:11.89 11.89;}.cls-14{stroke-dasharray:12.13 12.13;}.cls-15{stroke-dasharray:12.04 12.04;}.cls-16{stroke-dasharray:10.48 10.48;}.cls-17{stroke-dasharray:10.8 10.8;}.cls-18{stroke-dasharray:12.55 12.55;}.cls-19{stroke-dasharray:14.05 14.05;}.cls-20{stroke-dasharray:11.31 11.31;}.cls-21{stroke-dasharray:12.61 12.61;}.cls-22{stroke-dasharray:10.9 10.9;}.cls-23{stroke-dasharray:11.31 11.31;}.cls-24{stroke-dasharray:13.62 13.62;}.cls-25{stroke-dasharray:12.71 12.71;}.cls-26{stroke-dasharray:10.97 10.97;}.cls-27{stroke-dasharray:13.23 13.23;}.cls-28{stroke-dasharray:12.34 12.34;}.cls-29{stroke-dasharray:13 13;}.cls-30{stroke-dasharray:10.17 10.17;}.cls-31{stroke-dasharray:12.26 12.26;}.cls-32{stroke-dasharray:7.59 7.59;}.cls-33{stroke-dasharray:10.45 10.45;}.cls-34{stroke-dasharray:11.58 11.58;}.cls-35{stroke-dasharray:6.45 6.45;}.cls-36{stroke-dasharray:12.05 12.05;}.cls-37{stroke-dasharray:12.61 12.61;}.cls-38{stroke-dasharray:12.63 12.63;}.cls-39{stroke-dasharray:11.71 11.71;}.cls-40{stroke-dasharray:12.1 12.1;}.cls-41{stroke-dasharray:12.05 12.05;}.cls-42{fill:#939598;}.cls-43{stroke-dasharray:12.44 12.44;}.cls-44{stroke-dasharray:12.06 12.06;}.cls-45{stroke-dasharray:12.28 12.28;}.cls-46{stroke-dasharray:12.47 12.47;}.cls-47{stroke-dasharray:12.01 12.01;}.cls-48{stroke-dasharray:11.86 11.86;}.cls-49{stroke-dasharray:11.84 11.84;}.cls-50{stroke-dasharray:11.13 11.13;}.cls-51{stroke-dasharray:13.04 13.04;}.cls-52{stroke-dasharray:9.13 9.13;}.cls-53{stroke-dasharray:12.01 12.01;}.cls-54{stroke-dasharray:10.42 10.42;}.cls-55{stroke-dasharray:13.73 13.73;}.cls-56{stroke-dasharray:10.46 10.46;}.cls-57{fill:#a7a9ac;stroke-dasharray:12;}.cls-58{fill:#eabc80;}.cls-59{font-size:197.6px;font-family:Montserrat-SemiBold, Montserrat;font-weight:600;}.cls-59,.cls-61{fill:#fff;}.cls-60{letter-spacing:-0.01em;}.cls-61{font-size:61.14px;font-family:Montserrat-Light, Montserrat;font-weight:300;}</style></defs><rect class="cls-1" x="883.73" y="1074.76" width="1085.77" height="1085.77"/><polyline class="cls-2" points="178.3 1576.82 182 1572.09 185.17 1577.18"/><polyline class="cls-3" points="192.36 1588.69 226.71 1643.66 231.91 1651.99"/><path class="cls-2" d="M602.85,583l3.18,5.08q-2.79,1.08-5.64,2.06" transform="translate(-367.34 1074.76)"/><path class="cls-4" d="M588.07,593.82a159.08,159.08,0,0,1-32.45,4.78q-3.47.15-7,.15c-2.41,0-4.81-.06-7.2-.16a158.18,158.18,0,0,1-48.33-9.82" transform="translate(-367.34 1074.76)"/><path class="cls-2" d="M487.14,586.4c-1.85-.77-3.67-1.58-5.48-2.43l3.69-4.72" transform="translate(-367.34 1074.76)"/><polyline class="cls-5" points="124.71 1645.43 174.11 1582.19 174.95 1581.11"/><path class="cls-2" d="M594.21,697.78l-.16,0q-2.85.62-5.73,1.11a30.89,30.89,0,0,0,3.49-4.87" transform="translate(-367.34 1074.76)"/><path class="cls-6" d="M595.08,685.69a31,31,0,0,0,.74-6.72,30.08,30.08,0,0,0-.74-6.69" transform="translate(-367.34 1074.76)"/><path class="cls-2" d="M593.76,668a29.76,29.76,0,0,0-2.73-5.33q-2.91.69-5.86,1.28" transform="translate(-367.34 1074.76)"/><path class="cls-7" d="M573.38,665.76a155.43,155.43,0,0,1-17.76,1q-7.15,0-14.17-.65c-1.08-.1-2.16-.21-3.24-.34A152.37,152.37,0,0,1,450,624.44c-2.69-2.58-5.3-5.26-7.79-8A152.42,152.42,0,0,1,402.81,514c0-3.45.12-6.89.35-10.28A152.77,152.77,0,0,1,477.6,382.56c2.76-1.64,5.55-3.18,8.41-4.65a151.7,151.7,0,0,1,43.57-14.52" transform="translate(-367.34 1074.76)"/><path class="cls-2" d="M535.49,362.49c1.06-.14,2.13-.27,3.21-.38.91-.11,1.83-.2,2.75-.28v6" transform="translate(-367.34 1074.76)"/><polyline class="cls-8" points="174.11 1454.27 174.11 1564.2 104.26 1653.6 101.49 1657.14"/><path class="cls-2" d="M465.23,587l-3.69,4.73c1.72,1,3.47,2,5.23,2.93" transform="translate(-367.34 1074.76)"/><path class="cls-9" d="M477.42,599.83a158.24,158.24,0,0,0,64,13.44q7.15,0,14.17-.63A157.38,157.38,0,0,0,609.51,598" transform="translate(-367.34 1074.76)"/><path class="cls-2" d="M614.82,595.34c1.77-.92,3.53-1.88,5.26-2.87l-3.18-5.09" transform="translate(-367.34 1074.76)"/><polyline class="cls-10" points="242.93 1651.52 226.71 1625.57 188.28 1564.06 188.28 1448.19"/><path class="cls-2" d="M555.62,367.18v-6q3,0,6,.11" transform="translate(-367.34 1074.76)"/><path class="cls-11" d="M569.32,361.78q5.8.53,11.48,1.46" transform="translate(-367.34 1074.76)"/><path class="cls-2" d="M584.6,363.92q3,.57,5.86,1.25a29.71,29.71,0,0,0,2.91-5.24" transform="translate(-367.34 1074.76)"/><path class="cls-12" d="M595.63,351.41a32.26,32.26,0,0,0,.19-3.43,30.33,30.33,0,0,0-1.58-9.66" transform="translate(-367.34 1074.76)"/><path class="cls-2" d="M592.54,334.25a29.9,29.9,0,0,0-3.25-5c1.59.28,3.18.59,4.76.93l1.13.24" transform="translate(-367.34 1074.76)"/><path class="cls-13" d="M606.72,333.24a186.14,186.14,0,0,1,42.69,18c3.23,1.86,6.39,3.82,9.48,5.85a188.43,188.43,0,0,1,42.2,38.12A187.81,187.81,0,0,1,666,665.92q-3.9,2.82-7.91,5.45A186.7,186.7,0,0,1,600,696.48" transform="translate(-367.34 1074.76)"/><polyline class="cls-2" points="178.3 1576.82 182 1572.09 185.17 1577.18"/><polyline class="cls-3" points="192.36 1588.69 226.71 1643.66 231.91 1651.99"/><path class="cls-2" d="M602.85,583l3.18,5.08q-2.79,1.08-5.64,2.06" transform="translate(-367.34 1074.76)"/><path class="cls-4" d="M588.07,593.82a159.08,159.08,0,0,1-32.45,4.78q-3.47.15-7,.15c-2.41,0-4.81-.06-7.2-.16a158.18,158.18,0,0,1-48.33-9.82" transform="translate(-367.34 1074.76)"/><path class="cls-2" d="M487.14,586.4c-1.85-.77-3.67-1.58-5.48-2.43l3.69-4.72" transform="translate(-367.34 1074.76)"/><polyline class="cls-5" points="124.71 1645.43 174.11 1582.19 174.95 1581.11"/><path class="cls-2" d="M535.49,362.49c1.06-.14,2.13-.27,3.21-.38.91-.11,1.83-.2,2.75-.28v6" transform="translate(-367.34 1074.76)"/><polyline class="cls-8" points="174.11 1454.27 174.11 1564.2 104.26 1653.6 101.49 1657.14"/><path class="cls-2" d="M465.23,587l-3.69,4.73c1.72,1,3.47,2,5.23,2.93" transform="translate(-367.34 1074.76)"/><path class="cls-9" d="M477.42,599.83a158.24,158.24,0,0,0,64,13.44q7.15,0,14.17-.63A157.38,157.38,0,0,0,609.51,598" transform="translate(-367.34 1074.76)"/><path class="cls-2" d="M614.82,595.34c1.77-.92,3.53-1.88,5.26-2.87l-3.18-5.09" transform="translate(-367.34 1074.76)"/><polyline class="cls-10" points="242.93 1651.52 226.71 1625.57 188.28 1564.06 188.28 1448.19"/><path class="cls-2" d="M555.62,367.18v-6q3,0,6,.11" transform="translate(-367.34 1074.76)"/><path class="cls-14" d="M573.71,362.24a151,151,0,0,1,16.75,2.93c1.21.28,2.41.57,3.59.89a151.63,151.63,0,0,1,33.56,13.1q4.93,2.64,9.65,5.63a153.16,153.16,0,0,1,62.73,79c1.33,3.79,2.49,7.64,3.51,11.56a153.09,153.09,0,0,1-56.11,160.77q-3.84,2.88-7.85,5.54a152.14,152.14,0,0,1-45.49,20.2c-1,.27-2,.51-3,.74a152.4,152.4,0,0,1-35.41,4.14q-7.15,0-14.17-.65c-1.08-.1-2.16-.21-3.24-.34A152.37,152.37,0,0,1,450,624.44c-2.69-2.58-5.3-5.26-7.79-8A152.42,152.42,0,0,1,402.81,514c0-3.45.12-6.89.35-10.28A152.77,152.77,0,0,1,477.6,382.56c2.76-1.64,5.55-3.18,8.41-4.65a152.13,152.13,0,0,1,43.48-14.51" transform="translate(-367.34 1074.76)"/><line class="cls-2" x1="226.71" y1="1432.95" x2="226.71" y2="1438.95"/><polyline class="cls-15" points="226.71 1450.99 226.71 1496.86 226.71 1514.86 226.71 1613.55"/><line class="cls-2" x1="226.71" y1="1619.57" x2="226.71" y2="1625.57"/><line class="cls-2" x1="226.71" y1="1743.52" x2="226.71" y2="1737.52"/><line class="cls-16" x1="226.71" y1="1727.04" x2="226.71" y2="1690.34"/><line class="cls-2" x1="226.71" y1="1685.1" x2="226.71" y2="1679.1"/><line class="cls-2" x1="226.71" y1="1666.92" x2="226.71" y2="1660.92"/><line class="cls-2" x1="226.71" y1="1649.67" x2="226.71" y2="1643.67"/><line class="cls-2" x1="226.71" y1="1763.94" x2="226.71" y2="1769.94"/><line class="cls-17" x1="226.71" y1="1780.74" x2="226.71" y2="1840.15"/><line class="cls-2" x1="226.71" y1="1845.55" x2="226.71" y2="1851.55"/><line class="cls-2" x1="226.71" y1="1412.53" x2="226.71" y2="1406.53"/><polyline class="cls-18" points="226.71 1393.97 226.71 1379.3 226.71 1362.44 226.71 1324.93"/><line class="cls-2" x1="226.71" y1="1318.65" x2="226.71" y2="1312.65"/><line class="cls-2" x1="188.28" y1="1741.53" x2="188.28" y2="1735.53"/><line class="cls-19" x1="188.28" y1="1721.49" x2="188.28" y2="1700.42"/><line class="cls-2" x1="188.28" y1="1693.4" x2="188.28" y2="1687.4"/><line class="cls-2" x1="188.28" y1="1673.35" x2="188.28" y2="1667.35"/><line class="cls-20" x1="188.28" y1="1656.04" x2="188.28" y2="1593.82"/><line class="cls-2" x1="188.28" y1="1588.16" x2="188.28" y2="1582.16"/><polyline class="cls-2" points="188.28 1776.52 188.28 1782.37 188.28 1782.52"/><line class="cls-21" x1="188.28" y1="1795.12" x2="188.28" y2="1839.25"/><line class="cls-2" x1="188.28" y1="1845.55" x2="188.28" y2="1851.55"/><line class="cls-2" x1="188.28" y1="1400.95" x2="188.28" y2="1394.95"/><polyline class="cls-22" points="188.28 1384.05 188.28 1371.01 188.28 1356.01 188.28 1324.1"/><line class="cls-2" x1="188.28" y1="1318.65" x2="188.28" y2="1312.65"/><line class="cls-2" x1="174.11" y1="1673.34" x2="174.11" y2="1667.34"/><line class="cls-23" x1="174.11" y1="1656.03" x2="174.11" y2="1593.84"/><line class="cls-2" x1="174.11" y1="1588.19" x2="174.11" y2="1582.19"/><line class="cls-2" x1="174.11" y1="1688.02" x2="174.11" y2="1694.02"/><line class="cls-24" x1="174.11" y1="1707.64" x2="174.11" y2="1728.07"/><polyline class="cls-2" points="174.11 1734.88 174.11 1735.32 174.11 1740.88"/><line class="cls-2" x1="174.11" y1="1851.55" x2="174.11" y2="1845.55"/><line class="cls-25" x1="174.11" y1="1832.84" x2="174.11" y2="1788.35"/><line class="cls-2" x1="174.11" y1="1781.99" x2="174.11" y2="1775.99"/><line class="cls-2" x1="174.11" y1="1401.47" x2="174.11" y2="1395.47"/><polyline class="cls-26" points="174.11 1384.5 174.11 1370.38 174.11 1356.02 174.11 1324.14"/><line class="cls-2" x1="174.11" y1="1318.65" x2="174.11" y2="1312.65"/><line class="cls-2" x1="174.11" y1="1541.38" x2="170.93" y2="1536.3"/><line class="cls-27" x1="163.92" y1="1525.08" x2="125.36" y2="1463.37"/><line class="cls-2" x1="121.85" y1="1457.76" x2="118.67" y2="1452.67"/><line class="cls-2" x1="331.06" y1="1792.56" x2="327.88" y2="1787.47"/><polyline class="cls-28" points="321.34 1777 298.64 1740.67 280.05 1710.92 259.19 1677.54"/><line class="cls-2" x1="255.92" y1="1672.31" x2="252.74" y2="1667.22"/><line class="cls-2" x1="100.09" y1="1422.91" x2="96.91" y2="1417.82"/><polyline class="cls-29" points="90.01 1406.8 84.53 1398.03 80.66 1391.82 52.12 1346.16"/><line class="cls-2" x1="48.68" y1="1340.64" x2="45.5" y2="1335.56"/><line class="cls-2" x1="61.08" y1="1726.86" x2="57.39" y2="1731.59"/><line class="cls-30" x1="51.13" y1="1739.6" x2="29.22" y2="1767.64"/><line class="cls-2" x1="26.09" y1="1771.65" x2="22.39" y2="1776.38"/><line class="cls-2" x1="354.16" y1="1351.72" x2="350.47" y2="1356.45"/><polyline class="cls-31" points="342.92 1366.11 304.85 1414.85 295.51 1426.8 291.55 1431.87 269.92 1459.55 226.71 1514.86 195.75 1554.5"/><line class="cls-2" x1="191.97" y1="1559.33" x2="188.28" y2="1564.06"/><line class="cls-2" x1="104.11" y1="1671.8" x2="100.41" y2="1676.52"/><line class="cls-32" x1="95.74" y1="1682.51" x2="88.73" y2="1691.48"/><line class="cls-2" x1="86.39" y1="1694.47" x2="82.7" y2="1699.2"/><line class="cls-2" x1="53.1" y1="1719.07" x2="49.41" y2="1723.8"/><line class="cls-33" x1="42.98" y1="1732.03" x2="20.47" y2="1760.84"/><line class="cls-2" x1="17.25" y1="1764.96" x2="13.56" y2="1769.69"/><line class="cls-2" x1="345.34" y1="1345.03" x2="341.64" y2="1349.76"/><polyline class="cls-34" points="334.51 1358.88 297.44 1406.34 287.96 1418.47 282.07 1426.01 260.27 1453.91 226.71 1496.86 195.54 1536.77"/><line class="cls-2" x1="191.97" y1="1541.33" x2="188.28" y2="1546.05"/><line class="cls-2" x1="94.2" y1="1666.48" x2="90.5" y2="1671.21"/><line class="cls-35" x1="86.54" y1="1676.28" x2="80.58" y2="1683.9"/><line class="cls-2" x1="78.6" y1="1686.44" x2="74.91" y2="1691.17"/><line class="cls-2" x1="174.11" y1="1559.49" x2="170.93" y2="1554.4"/><line class="cls-36" x1="164.54" y1="1544.18" x2="116.63" y2="1467.51"/><line class="cls-2" x1="113.44" y1="1462.4" x2="110.26" y2="1457.32"/><line class="cls-2" x1="244.25" y1="1671.73" x2="247.43" y2="1676.82"/><polyline class="cls-37" points="254.11 1687.51 272.2 1716.46 290.73 1746.12 317.58 1789.09"/><line class="cls-2" x1="320.92" y1="1794.44" x2="324.1" y2="1799.53"/><line class="cls-2" x1="91.72" y1="1427.65" x2="88.55" y2="1422.56"/><polyline class="cls-38" points="81.86 1411.85 76.76 1403.7 73.33 1398.21 45.05 1352.96"/><line class="cls-2" x1="41.71" y1="1347.6" x2="38.53" y2="1342.51"/><path class="cls-2" d="M456.41,588.6q2.54,1.6,5.13,3.12l3.69-4.73" transform="translate(-367.34 1074.76)"/><polyline class="cls-8" points="105.08 1652.54 174.11 1564.2 174.11 1448.43"/><path class="cls-2" d="M541.45,367.83v-6c-.92.08-1.84.17-2.75.28-1.08.11-2.15.24-3.21.38" transform="translate(-367.34 1074.76)"/><path class="cls-39" d="M523.94,364.46A152,152,0,0,0,486,377.91c-2.86,1.47-5.65,3-8.41,4.65a152.77,152.77,0,0,0-74.44,121.13c-.23,3.39-.35,6.83-.35,10.28a153.74,153.74,0,0,0,1.35,20.37,159.5,159.5,0,0,0,47.37,51" transform="translate(-367.34 1074.76)"/><path class="cls-2" d="M384.05,433.13q-.39,3-.68,6,1.2-2.76,2.48-5.46" transform="translate(-367.34 1074.76)"/><path class="cls-40" d="M391.39,422.87a188.39,188.39,0,0,1,67.68-70c2.74-1.65,5.52-3.25,8.36-4.74a186.31,186.31,0,0,1,74-21.44l2.65-.18q5.71-.35,11.52-.35a188.58,188.58,0,0,1,33.67,3,29.78,29.78,0,0,1,4.76,8.56,30.3,30.3,0,0,1,1.13,16.4" transform="translate(-367.34 1074.76)"/><path class="cls-2" d="M593.37,359.93a29.71,29.71,0,0,1-2.91,5.24q-2.91-.68-5.86-1.25" transform="translate(-367.34 1074.76)"/><path class="cls-11" d="M577,362.66q-5.7-.8-11.52-1.17" transform="translate(-367.34 1074.76)"/><path class="cls-2" d="M561.62,361.29q-3-.1-6-.11v6" transform="translate(-367.34 1074.76)"/><polyline class="cls-10" points="188.28 1454.45 188.28 1564.06 226.71 1625.57 246.25 1656.83"/><path class="cls-2" d="M616.9,587.38l3.18,5.09c1.74-1,3.46-2,5.16-3.08" transform="translate(-367.34 1074.76)"/><path class="cls-41" d="M635.22,582.64a159.32,159.32,0,0,0,52-65,157.46,157.46,0,0,0,12.8-53.8c.19-3.1.28-6.24.28-9.39a158.21,158.21,0,0,0-24.49-84.78,160,160,0,0,0-12.93-17.61q-3.61-4.31-7.55-8.33a158.13,158.13,0,0,0-99.68-47.47q-7-.63-14.17-.63a158,158,0,0,0-89.57,27.66q-4,2.7-7.77,5.67a159.3,159.3,0,0,0-41.2,47.79,157.41,157.41,0,0,0-18,50.44" transform="translate(-367.34 1074.76)"/><polyline class="cls-2" points="185.17 1577.18 182 1572.09 178.3 1576.82"/><line class="cls-5" x1="171.6" y1="1585.4" x2="121.36" y2="1649.71"/><path class="cls-2" d="M485.35,579.25,481.66,584c1.81.85,3.63,1.66,5.48,2.43" transform="translate(-367.34 1074.76)"/><path class="cls-4" d="M499.19,590.9a158.71,158.71,0,0,0,42.26,7.69c2.39.1,4.79.16,7.2.16s4.66,0,7-.15a158.2,158.2,0,0,0,38.43-6.44l.21-.06" transform="translate(-367.34 1074.76)"/><path class="cls-2" d="M600.39,590.13q2.85-1,5.64-2.06L602.85,583" transform="translate(-367.34 1074.76)"/><polyline class="cls-3" points="228.32 1646.23 226.71 1643.66 188.76 1582.94"/><path class="cls-42" d="M620.08,592.47c-2.77,1.59-5.61,3.08-8.49,4.5a157.31,157.31,0,0,1-56,15.67q-7,.63-14.17.63a158,158,0,0,1-70-16.23q-5.06-2.47-9.91-5.32l10.06-12.88c3.28,1.82,6.64,3.54,10.06,5.13a158.1,158.1,0,0,0,59.79,14.62c2.39.1,4.79.16,7.2.16s4.66,0,7-.15a158.2,158.2,0,0,0,38.43-6.44c4.07-1.2,8.06-2.58,12-4.09,3-1.17,6-2.43,8.94-3.78Z" transform="translate(-367.34 1074.76)"/><path class="cls-2" d="M609.47,586.69q2.78-1.16,5.5-2.4l5.11,8.18c-1.73,1-3.49,1.95-5.26,2.87" transform="translate(-367.34 1074.76)"/><path class="cls-9" d="M604.12,600.42q-4.95,2.13-10.07,3.93a157.35,157.35,0,0,1-38.43,8.29q-7,.63-14.17.63a158.1,158.1,0,0,1-69.4-15.93" transform="translate(-367.34 1074.76)"/><path class="cls-2" d="M466.77,594.65c-1.76-.94-3.51-1.92-5.23-2.93l3.69-4.73" transform="translate(-367.34 1074.76)"/><path class="cls-2" d="M467.9,583.57l3.7-4.73c1.74,1,3.51,1.91,5.29,2.82" transform="translate(-367.34 1074.76)"/><path class="cls-43" d="M488.2,586.84a158.08,158.08,0,0,0,53.25,11.75c2.39.1,4.79.16,7.2.16s4.66,0,7-.15a158.2,158.2,0,0,0,38.43-6.44q4.89-1.44,9.62-3.2" transform="translate(-367.34 1074.76)"/><path class="cls-2" d="M466.41,575.83c1.71,1,3.44,2,5.19,3l3.69-4.73" transform="translate(-367.34 1074.76)"/><polyline class="cls-44" points="115.37 1639.37 174.11 1564.2 174.11 1448.61"/><path class="cls-2" d="M541.45,367.83v-6c-.92.08-1.84.17-2.75.28-1.08.11-2.15.24-3.21.38" transform="translate(-367.34 1074.76)"/><path class="cls-45" d="M523.39,364.58A151.9,151.9,0,0,0,486,377.91c-2.86,1.47-5.65,3-8.41,4.65a152.77,152.77,0,0,0-74.44,121.13,159.38,159.38,0,0,0,58.07,68.85" transform="translate(-367.34 1074.76)"/><path class="cls-2" d="M391.29,418.34q-.41,3-.69,6c.95-1.75,1.94-3.5,2.95-5.22" transform="translate(-367.34 1074.76)"/><path class="cls-46" d="M400.21,408.54a188.45,188.45,0,0,1,58.86-55.64c2.74-1.65,5.52-3.25,8.36-4.74a186.31,186.31,0,0,1,74-21.44l2.65-.18q5.71-.35,11.52-.35a188.58,188.58,0,0,1,33.67,3,29.78,29.78,0,0,1,4.76,8.56A30.32,30.32,0,0,1,595.22,354" transform="translate(-367.34 1074.76)"/><path class="cls-2" d="M593.37,359.93a29.71,29.71,0,0,1-2.91,5.24q-2.91-.68-5.86-1.25" transform="translate(-367.34 1074.76)"/><path class="cls-11" d="M577,362.66q-5.7-.8-11.52-1.17" transform="translate(-367.34 1074.76)"/><path class="cls-2" d="M561.62,361.29q-3-.1-6-.11v6" transform="translate(-367.34 1074.76)"/><polyline class="cls-47" points="188.28 1453.94 188.28 1564.06 226.71 1625.57 241.27 1648.86"/><path class="cls-2" d="M611.79,579.2l3.18,5.09q2.73-1.26,5.4-2.61" transform="translate(-367.34 1074.76)"/><path class="cls-48" d="M630.74,575.92a159.53,159.53,0,0,0,56.45-58.29,157.79,157.79,0,0,0,16.31-42.24A158.72,158.72,0,0,0,672.19,340.1c-2.37-2.93-4.85-5.77-7.41-8.52a158.34,158.34,0,0,0-109.16-50.33q-3.47-.15-7-.15t-7.2.17A158.12,158.12,0,0,0,448,317.06c-2.51,2.06-4.95,4.2-7.33,6.39a158.89,158.89,0,0,0-37.76,53.29,156.58,156.58,0,0,0-10.72,35.75" transform="translate(-367.34 1074.76)"/><polyline class="cls-2" points="185.17 1577.18 182 1572.09 178.3 1576.82"/><line class="cls-5" x1="171.6" y1="1585.4" x2="121.36" y2="1649.71"/><path class="cls-2" d="M485.35,579.25,481.66,584c1.81.85,3.63,1.66,5.48,2.43" transform="translate(-367.34 1074.76)"/><path class="cls-4" d="M499.19,590.9a158.71,158.71,0,0,0,42.26,7.69c2.39.1,4.79.16,7.2.16s4.66,0,7-.15a158.2,158.2,0,0,0,38.43-6.44l.21-.06" transform="translate(-367.34 1074.76)"/><path class="cls-2" d="M600.39,590.13q2.85-1,5.64-2.06L602.85,583" transform="translate(-367.34 1074.76)"/><polyline class="cls-3" points="228.32 1646.23 226.71 1643.66 188.76 1582.94"/><path class="cls-42" d="M541.45,361.83c-.92.08-1.84.17-2.75.28A151.68,151.68,0,0,0,486,377.91c-2.86,1.47-5.65,3-8.41,4.65a152.77,152.77,0,0,0-74.44,121.13c-.23,3.39-.35,6.83-.35,10.28a152.42,152.42,0,0,0,39.44,102.44c2.49,2.77,5.1,5.45,7.79,8a152.37,152.37,0,0,0,88.17,41.35c1.08.13,2.16.24,3.24.34q7,.64,14.17.65A152.4,152.4,0,0,0,591,662.64a28.79,28.79,0,0,1,3,6.12,30.27,30.27,0,0,1-5.73,30.16,188.48,188.48,0,0,1-32.7,2.84c-3.48,0-7-.09-10.4-.29-1.26-.06-2.52-.14-3.77-.23a187.1,187.1,0,0,1-113-49.13q-4.11-3.76-8-7.8a187.94,187.94,0,0,1-37.08-205.22q3.3-7.57,7.23-14.79a188.47,188.47,0,0,1,68.47-71.4c2.74-1.65,5.52-3.25,8.36-4.74a186.31,186.31,0,0,1,74-21.44l2.65-.18q5.71-.35,11.52-.35a188.58,188.58,0,0,1,33.67,3,29.78,29.78,0,0,1,4.76,8.56,30.33,30.33,0,0,1,0,20.42,29.35,29.35,0,0,1-3.59,7,153.14,153.14,0,0,0-34.84-4V489.3l38.43,61.51L615,584.29c-2.94,1.35-5.91,2.61-8.94,3.78l-12-19.16-38.43-61.5-6.28-10.07-7.89,10.09L481.66,584c-3.42-1.59-6.78-3.31-10.06-5.13l69.85-89.4Z" transform="translate(-367.34 1074.76)"/><path class="cls-2" d="M541.45,367.83v-6c-.92.08-1.84.17-2.75.28-1.08.11-2.15.24-3.21.38" transform="translate(-367.34 1074.76)"/><path class="cls-7" d="M523.72,364.51A151.74,151.74,0,0,0,486,377.91c-2.86,1.47-5.65,3-8.41,4.65a152.77,152.77,0,0,0-74.44,121.13c-.23,3.39-.35,6.83-.35,10.28a152.42,152.42,0,0,0,39.44,102.44c2.49,2.77,5.1,5.45,7.79,8a152.37,152.37,0,0,0,88.17,41.35c1.08.13,2.16.24,3.24.34q7,.64,14.17.65A154,154,0,0,0,579.3,665" transform="translate(-367.34 1074.76)"/><path class="cls-2" d="M585.17,663.92q3-.58,5.86-1.28a29.76,29.76,0,0,1,2.73,5.33" transform="translate(-367.34 1074.76)"/><path class="cls-49" d="M595.81,679.56a29.77,29.77,0,0,1-1.76,9.62,30.14,30.14,0,0,1-5.73,9.74,188.48,188.48,0,0,1-32.7,2.84c-3.48,0-7-.09-10.4-.29-1.26-.06-2.52-.14-3.77-.23a187.1,187.1,0,0,1-113-49.13q-4.11-3.76-8-7.8a187.94,187.94,0,0,1-37.08-205.22q3.3-7.57,7.23-14.79a188.47,188.47,0,0,1,68.47-71.4c2.74-1.65,5.52-3.25,8.36-4.74a186.31,186.31,0,0,1,74-21.44l2.65-.18q5.71-.35,11.52-.35a188.58,188.58,0,0,1,33.67,3,29.78,29.78,0,0,1,4.76,8.56,30.39,30.39,0,0,1,1.11,16.52" transform="translate(-367.34 1074.76)"/><path class="cls-2" d="M593.37,359.93a29.71,29.71,0,0,1-2.91,5.24q-2.91-.68-5.86-1.25" transform="translate(-367.34 1074.76)"/><path class="cls-11" d="M577,362.66q-5.7-.8-11.52-1.17" transform="translate(-367.34 1074.76)"/><path class="cls-2" d="M561.62,361.29q-3-.1-6-.11v6" transform="translate(-367.34 1074.76)"/><polyline class="cls-47" points="188.28 1453.94 188.28 1564.06 226.71 1625.57 241.27 1648.86"/><path class="cls-2" d="M611.79,579.2l3.18,5.09c-2.94,1.35-5.91,2.61-8.94,3.78L602.85,583" transform="translate(-367.34 1074.76)"/><polyline class="cls-3" points="228.32 1646.23 226.71 1643.66 188.76 1582.94"/><polyline class="cls-2" points="185.17 1577.18 182 1572.09 178.3 1576.82"/><line class="cls-5" x1="171.6" y1="1585.4" x2="121.36" y2="1649.71"/><path class="cls-2" d="M485.35,579.25,481.66,584c-3.42-1.59-6.78-3.31-10.06-5.13l3.69-4.73" transform="translate(-367.34 1074.76)"/><polyline class="cls-44" points="115.37 1639.37 174.11 1564.2 174.11 1448.61"/><path class="cls-2" d="M585.14,324.9a30.21,30.21,0,0,1,4.15,4.31q-2.94-.52-5.92-1" transform="translate(-367.34 1074.76)"/><path class="cls-50" d="M572.33,326.93q-8.24-.74-16.67-.74" transform="translate(-367.34 1074.76)"/><path class="cls-2" d="M550.09,326.27q-3,.09-6,.27a30.81,30.81,0,0,1,4.63-3.8" transform="translate(-367.34 1074.76)"/><path class="cls-51" d="M560.79,318.05a29.51,29.51,0,0,1,4.73-.37,30.08,30.08,0,0,1,14.24,3.55" transform="translate(-367.34 1074.76)"/><path class="cls-2" d="M541.45,361.83v4.56a27.36,27.36,0,0,1-2.75-4.28c.91-.11,1.83-.2,2.75-.28Z" transform="translate(-367.34 1074.76)"/><path class="cls-2" d="M584.6,363.92q3,.57,5.86,1.25a30.7,30.7,0,0,1-3.86,4.58" transform="translate(-367.34 1074.76)"/><path class="cls-52" d="M579.2,375A30.13,30.13,0,0,1,566,378.28" transform="translate(-367.34 1074.76)"/><path class="cls-2" d="M561.45,378a29.85,29.85,0,0,1-5.83-1.39v-6" transform="translate(-367.34 1074.76)"/><path class="cls-2" d="M555.62,367.18v-6q3,0,6,.11" transform="translate(-367.34 1074.76)"/><path class="cls-11" d="M569.32,361.78q5.8.53,11.48,1.46" transform="translate(-367.34 1074.76)"/><path class="cls-2" d="M582.39,699.86c2-.28,4-.6,5.93-.94A30.85,30.85,0,0,1,584,703" transform="translate(-367.34 1074.76)"/><path class="cls-53" d="M573.24,708.28a30.33,30.33,0,0,1-17.62-.66l-.13,0" transform="translate(-367.34 1074.76)"/><path class="cls-2" d="M550,705a30,30,0,0,1-4.82-3.56c2,.12,4,.19,6,.24" transform="translate(-367.34 1074.76)"/><path class="cls-54" d="M561.64,701.67q7.88-.25,15.58-1.14" transform="translate(-367.34 1074.76)"/><path class="cls-2" d="M587.32,657.94a30.09,30.09,0,0,1,3.71,4.7q-2.91.69-5.86,1.28" transform="translate(-367.34 1074.76)"/><path class="cls-55" d="M571.6,666a153.32,153.32,0,0,1-16,.83c-1.53,0-3.06,0-4.58-.07" transform="translate(-367.34 1074.76)"/><path class="cls-2" d="M544.18,666.35c-.91-.06-1.82-.14-2.73-.22-1.08-.1-2.16-.21-3.24-.34a29.85,29.85,0,0,1,3.14-5.1" transform="translate(-367.34 1074.76)"/><path class="cls-56" d="M549,653.59a29.61,29.61,0,0,1,6.66-3.26,30.32,30.32,0,0,1,27.77,4.17" transform="translate(-367.34 1074.76)"/><circle class="cls-57" cx="104.96" cy="1357.06" r="37.22"/><image width="563" height="6604" transform="translate(2504.93)" xlink:href="../../../Downloads/deae93aa1c54f397ba19bf7b069f8549.jpg"/><path class="cls-1" d="M1659,526l3.72-4.76,3,4.75,18.12,29,5.64,9q-2.76,1.08-5.64,1.93a74.74,74.74,0,0,1-18.12,3c-1.09,0-2.19.07-3.29.07s-2.26,0-3.39-.08a74.52,74.52,0,0,1-28.19-6.89Z" transform="translate(-367.34 1074.76)"/><path class="cls-1" d="M1659,526l3.72-4.76,3,4.75,18.12,29,5.64,9q-2.76,1.08-5.64,1.93a74.74,74.74,0,0,1-18.12,3c-1.09,0-2.19.07-3.29.07s-2.26,0-3.39-.08a74.52,74.52,0,0,1-28.19-6.89Z" transform="translate(-367.34 1074.76)"/><line class="cls-1" x1="1316.45" y1="1640.68" x2="1316.45" y2="1629.71"/><path class="cls-1" d="M1659,457.32v2.16a12.63,12.63,0,0,1-1.3-2Z" transform="translate(-367.34 1074.76)"/><path class="cls-58" d="M1666.78,672.83q-5.29,3-10.81,5.74a200.76,200.76,0,0,1-71.29,19.95q-8.91.79-18,.8a201.29,201.29,0,0,1-89.16-20.66c-4.29-2.11-8.51-4.37-12.62-6.78l12.81-16.41Q1484,659,1490.48,662a201.27,201.27,0,0,0,76.16,18.61c3,.14,6.09.21,9.17.21s5.93-.06,8.87-.19a201.63,201.63,0,0,0,49-8.2q7.77-2.31,15.25-5.2c3.87-1.5,7.65-3.11,11.4-4.83Z" transform="translate(-367.34 1074.76)"/><path class="cls-58" d="M1566.64,379.08l-3.51.36a193.28,193.28,0,0,0-67.1,20.13c-3.64,1.87-7.2,3.83-10.71,5.92a194.54,194.54,0,0,0-94.81,154.28c-.29,4.31-.44,8.69-.44,13.09a196.44,196.44,0,0,0,1.71,25.94,194,194,0,0,0,48.51,104.53c3.18,3.52,6.49,6.94,9.93,10.22a193.94,193.94,0,0,0,112.29,52.66c1.38.17,2.75.32,4.13.43q8.91.83,18,.83a194.81,194.81,0,0,0,45.11-5.26,36.88,36.88,0,0,1,3.84,7.79,38.5,38.5,0,0,1-7.3,38.4,239.22,239.22,0,0,1-41.65,3.63c-4.43,0-8.86-.12-13.24-.37q-2.42-.12-4.8-.3a238.28,238.28,0,0,1-144-62.57q-5.24-4.8-10.17-9.93a239.38,239.38,0,0,1-47.21-261.37q4.18-9.66,9.2-18.83a240,240,0,0,1,87.2-91c3.49-2.1,7-4.13,10.65-6a237.53,237.53,0,0,1,94.28-27.3l3.37-.23c4.85-.29,9.75-.44,14.67-.44a239.49,239.49,0,0,1,42.89,3.85,37.77,37.77,0,0,1,6.06,10.9,38.68,38.68,0,0,1,0,26,37.81,37.81,0,0,1-4.57,8.9,194.79,194.79,0,0,0-44.38-5.09V541.44l49,78.34,26.65,42.63c-3.75,1.72-7.53,3.33-11.4,4.83l-15.25-24.41-49-78.33-8-12.83-10,12.86L1490.48,662q-6.52-3-12.81-6.54l89-113.86Z" transform="translate(-367.34 1074.76)"/><circle class="cls-58" cx="1111.23" cy="1352.56" r="47.4"/><text class="cls-59" transform="translate(1323.91 1688.88)"><tspan class="cls-60">C</tspan><tspan x="140.69" y="0">ASE</tspan></text><text class="cls-61" transform="translate(1369.62 1775.51)">BE HEARD</text></svg>